<?xml version="1.0" standalone="no"?>
<!DOCTYPE svg PUBLIC "-//W3C//DTD SVG 1.1//EN"
  "http://www.w3.org/Graphics/SVG/1.1/DTD/svg11.dtd">
<svg width="531.49px" height="531.49px" version="1.1"
    xmlns="http://www.w3.org/2000/svg"
    xmlns:xlink="http://www.w3.org/1999/xlink">
<desc>Veusz output document</desc>
<defs>
<clipPath id="c0">
<path d="m0,0l531.49,0l0,531.49l-531.49,0l0,-531.49"/>
</clipPath>
<clipPath id="c1">
<path d="m60.23,7.08l464.17,0l0,464.17l-464.17,0l0,-464.17"/>
</clipPath>
</defs>
<g stroke-linejoin="bevel" stroke-linecap="square" stroke="#000000" fill-rule="evenodd">
<g clip-path="url(#c0)">
<g fill="#ffffff" stroke-width="0.62">
<path d="m60.23,7.08l464.17,0l0,464.17l-464.17,0l0,-464.17"/>
</g>
</g>
<g clip-path="url(#c1)">
<g fill="none" stroke="#d3d3d3" stroke-dasharray="0.62,1.25" stroke-width="0.62">
<path d="M60.23,454.06l464.17,0M60.23,436.87l464.17,0M60.23,419.68l464.17,0M60.23,402.49l464.17,0M60.23,385.3l464.17,0M60.23,368.11l464.17,0M60.23,350.91l464.17,0M60.23,333.72l464.17,0M60.23,316.53l464.17,0M60.23,299.34l464.17,0M60.23,282.15l464.17,0M60.23,264.96l464.17,0M60.23,247.76l464.17,0M60.23,230.57l464.17,0M60.23,213.38l464.17,0M60.23,196.19l464.17,0M60.23,179l464.17,0M60.23,161.81l464.17,0M60.23,144.61l464.17,0M60.23,127.42l464.17,0M60.23,110.23l464.17,0M60.23,93.04l464.17,0M60.23,75.85l464.17,0M60.23,58.66l464.17,0M60.23,41.46l464.17,0M60.23,24.27l464.17,0"/>
</g>
<g fill="none" stroke="#808080" stroke-dasharray="0.62,1.25" stroke-width="0.62">
<path d="M60.23,385.3l464.17,0M60.23,299.34l464.17,0M60.23,213.38l464.17,0M60.23,127.42l464.17,0M60.23,41.46l464.17,0"/>
</g>
<g fill="none" stroke="#d3d3d3" stroke-width="0.62">
<path d="M93.39,7.08l0,464.17M126.54,7.08l0,464.17M159.7,7.08l0,464.17M192.85,7.08l0,464.17M226.01,7.08l0,464.17M259.16,7.08l0,464.17M292.32,7.08l0,464.17M325.47,7.08l0,464.17M358.63,7.08l0,464.17M391.78,7.08l0,464.17M424.94,7.08l0,464.17M458.09,7.08l0,464.17M491.25,7.08l0,464.17"/>
</g>
<g fill="none" stroke="#ff0000" stroke-width="1.25">
<polyline fill="none" points="115.93,385.3 192.85,187.59 312.21,187.59 352,84.44 418.31,84.44 444.83,153.21"/>
</g>
<g fill="none" stroke="#0000ff" stroke-width="1.25">
<polyline fill="none" points="126.54,385.3 192.85,247.76 312.21,247.76 361.28,118.83 427.59,118.83 454.12,187.59"/>
</g>
<g fill="none" stroke="#008000" stroke-width="1.25">
<polyline fill="none" points="64.21,426.56 70.84,426.56 77.47,424.84 84.1,424.84 90.73,421.4 97.37,419.68 104,414.52 110.63,411.08 117.26,404.21 123.89,397.33 130.52,390.45 137.15,381.86 143.78,373.26 150.41,364.67 157.04,352.63 163.68,340.6 170.31,330.28 176.94,318.25 183.57,306.22 190.2,292.46 196.83,280.43 203.46,270.11 210.09,258.08 216.72,247.76 223.36,237.45 229.99,228.85 236.62,218.54 243.25,213.38 249.88,209.94 256.51,206.5 263.14,204.79 269.77,204.79 276.4,204.79 283.03,204.79 289.67,206.5 296.3,206.5 302.93,204.79 309.56,201.35 316.19,197.91 322.82,192.75 329.45,187.59 336.08,182.44 342.71,175.56 349.34,168.68 355.98,163.53 362.61,156.65 369.24,148.05 375.87,141.18 382.5,134.3 389.13,127.42 395.76,120.55 402.39,111.95 409.02,106.79 415.66,103.35 422.29,101.64 428.92,101.64 435.55,105.07 442.18,101.64 448.81,106.79 455.44,106.79 462.07,106.79 468.7,101.64 475.33,103.35 481.97,103.35 488.6,105.07 495.23,111.95 501.86,122.27 508.49,132.58 515.12,139.46 521.75,144.61 525.65,149.67"/>
</g>
</g>
<g clip-path="url(#c0)">
<g fill="none" stroke-linecap="butt" stroke-width="0.62">
<path d="M60.23,471.25l0,-464.17"/>
<path d="M60.23,471.25l3.75,0M60.23,454.06l3.75,0M60.23,436.87l3.75,0M60.23,419.68l3.75,0M60.23,402.49l3.75,0M60.23,385.3l3.75,0M60.23,368.11l3.75,0M60.23,350.91l3.75,0M60.23,333.72l3.75,0M60.23,316.53l3.75,0M60.23,299.34l3.75,0M60.23,282.15l3.75,0M60.23,264.96l3.75,0M60.23,247.76l3.75,0M60.23,230.57l3.75,0M60.23,213.38l3.75,0M60.23,196.19l3.75,0M60.23,179l3.75,0M60.23,161.81l3.75,0M60.23,144.61l3.75,0M60.23,127.42l3.75,0M60.23,110.23l3.75,0M60.23,93.04l3.75,0M60.23,75.85l3.75,0M60.23,58.66l3.75,0M60.23,41.46l3.75,0M60.23,24.27l3.75,0M60.23,7.08l3.75,0"/>
<path d="M60.23,471.25l7.5,0M60.23,385.3l7.5,0M60.23,299.34l7.5,0M60.23,213.38l7.5,0M60.23,127.42l7.5,0M60.23,41.46l7.5,0"/>
<path d="M524.4,471.25l0,-464.17"/>
<path d="M524.4,471.25l-3.75,0M524.4,454.06l-3.75,0M524.4,436.87l-3.75,0M524.4,419.68l-3.75,0M524.4,402.49l-3.75,0M524.4,385.3l-3.75,0M524.4,368.11l-3.75,0M524.4,350.91l-3.75,0M524.4,333.72l-3.75,0M524.4,316.53l-3.75,0M524.4,299.34l-3.75,0M524.4,282.15l-3.75,0M524.4,264.96l-3.75,0M524.4,247.76l-3.75,0M524.4,230.57l-3.75,0M524.4,213.38l-3.75,0M524.4,196.19l-3.75,0M524.4,179l-3.75,0M524.4,161.81l-3.75,0M524.4,144.61l-3.75,0M524.4,127.42l-3.75,0M524.4,110.23l-3.75,0M524.4,93.04l-3.75,0M524.4,75.85l-3.75,0M524.4,58.66l-3.75,0M524.4,41.46l-3.75,0M524.4,24.27l-3.75,0M524.4,7.08l-3.75,0"/>
<path d="M524.4,471.25l-7.5,0M524.4,385.3l-7.5,0M524.4,299.34l-7.5,0M524.4,213.38l-7.5,0M524.4,127.42l-7.5,0M524.4,41.46l-7.5,0"/>
</g>
<g fill="none" stroke-width="1">
<g transform="matrix(0 -1 1 0 17.08 298.29)">
<path d="m2.82,-10.39l0,2.57l1.82,0l0,0.59l-1.82,0l0,5.07c0,0.5,0.07,0.84,0.21,1.02c0.14,0.17,0.33,0.26,0.55,0.26c0.18,0,0.37,-0.05,0.54,-0.17c0.17,-0.11,0.31,-0.28,0.41,-0.51l0.33,0c-0.19,0.55,-0.48,0.97,-0.84,1.26c-0.36,0.28,-0.74,0.42,-1.12,0.42c-0.26,0,-0.51,-0.07,-0.76,-0.21c-0.25,-0.14,-0.43,-0.35,-0.55,-0.62c-0.11,-0.27,-0.17,-0.68,-0.17,-1.25l0,-5.26l-1.23,0l0,-0.28c0.31,-0.12,0.63,-0.33,0.96,-0.63c0.32,-0.29,0.61,-0.65,0.87,-1.06c0.13,-0.21,0.31,-0.61,0.54,-1.18l0.26,0m3.9,5.51c0,1.16,0.27,2.07,0.84,2.73c0.56,0.66,1.23,0.99,2,0.99c0.51,0,0.95,-0.14,1.33,-0.42c0.37,-0.28,0.69,-0.76,0.95,-1.44l0.26,0.17c-0.11,0.78,-0.46,1.49,-1.04,2.13c-0.57,0.64,-1.29,0.96,-2.16,0.96c-0.93,0,-1.74,-0.36,-2.41,-1.09c-0.66,-0.73,-1,-1.71,-1,-2.95c0,-1.33,0.34,-2.38,1.02,-3.13c0.68,-0.74,1.54,-1.12,2.58,-1.12c0.87,0,1.59,0.28,2.16,0.86c0.56,0.57,0.84,1.35,0.84,2.31l-5.4,0m0,-0.49l3.62,0c-0.02,-0.5,-0.08,-0.85,-0.17,-1.05c-0.14,-0.31,-0.35,-0.56,-0.63,-0.75c-0.28,-0.18,-0.57,-0.27,-0.88,-0.27c-0.47,0,-0.89,0.18,-1.26,0.55c-0.37,0.36,-0.59,0.87,-0.65,1.53m8.77,-1.01c0.56,-0.56,0.9,-0.89,1,-0.98c0.25,-0.21,0.53,-0.38,0.82,-0.5c0.29,-0.11,0.58,-0.17,0.88,-0.17c0.48,0,0.91,0.14,1.26,0.42c0.35,0.28,0.58,0.69,0.7,1.23c0.58,-0.68,1.08,-1.13,1.48,-1.34c0.4,-0.21,0.82,-0.32,1.24,-0.32c0.41,0,0.78,0.1,1.1,0.32c0.32,0.21,0.57,0.56,0.76,1.04c0.12,0.33,0.18,0.84,0.18,1.55l0,3.36c0,0.48,0.03,0.82,0.11,1c0.05,0.12,0.16,0.23,0.31,0.32c0.15,0.08,0.4,0.13,0.75,0.13l0,0.3l-3.86,0l0,-0.3l0.16,0c0.33,0,0.59,-0.06,0.78,-0.19c0.13,-0.09,0.22,-0.23,0.28,-0.43c0.02,-0.09,0.03,-0.37,0.03,-0.82l0,-3.36c0,-0.63,-0.07,-1.08,-0.23,-1.35c-0.22,-0.36,-0.57,-0.54,-1.06,-0.54c-0.3,0,-0.6,0.07,-0.91,0.22c-0.3,0.15,-0.67,0.43,-1.1,0.84l-0.01,0.09l0.01,0.36l0,3.73c0,0.53,0.02,0.86,0.08,1c0.05,0.13,0.17,0.24,0.33,0.32c0.16,0.08,0.44,0.13,0.84,0.13l0,0.3l-3.95,0l0,-0.3c0.43,0,0.73,-0.05,0.89,-0.15c0.16,-0.1,0.27,-0.25,0.33,-0.46c0.02,-0.09,0.04,-0.37,0.04,-0.84l0,-3.36c0,-0.63,-0.09,-1.09,-0.28,-1.37c-0.25,-0.36,-0.6,-0.54,-1.05,-0.54c-0.3,0,-0.61,0.08,-0.91,0.24c-0.47,0.25,-0.83,0.53,-1.09,0.84l0,4.19c0,0.51,0.03,0.84,0.1,0.99c0.07,0.15,0.17,0.26,0.31,0.34c0.13,0.07,0.42,0.11,0.85,0.11l0,0.3l-3.87,0l0,-0.3c0.35,0,0.61,-0.03,0.75,-0.11c0.14,-0.07,0.25,-0.19,0.32,-0.36c0.07,-0.16,0.11,-0.49,0.11,-0.97l0,-2.99c0,-0.86,-0.02,-1.41,-0.07,-1.66c-0.03,-0.18,-0.1,-0.31,-0.18,-0.38c-0.08,-0.07,-0.2,-0.1,-0.35,-0.1c-0.15,0,-0.35,0.04,-0.57,0.12l-0.12,-0.3l2.35,-0.95l0.36,0l0,1.66m10.72,-0.65l2.4,-0.97l0.32,0l0,1.82c0.4,-0.68,0.8,-1.17,1.21,-1.44c0.4,-0.27,0.83,-0.41,1.28,-0.41c0.78,0,1.44,0.3,1.96,0.92c0.64,0.75,0.96,1.73,0.96,2.93c0,1.35,-0.38,2.46,-1.16,3.35c-0.63,0.72,-1.44,1.08,-2.4,1.08c-0.42,0,-0.78,-0.05,-1.09,-0.17c-0.22,-0.08,-0.48,-0.25,-0.76,-0.51l0,2.38c0,0.53,0.03,0.87,0.09,1.02c0.06,0.14,0.17,0.26,0.34,0.34c0.16,0.08,0.45,0.12,0.88,0.12l0,0.31l-4.1,0l0,-0.31l0.21,0c0.31,0,0.58,-0.05,0.8,-0.17c0.1,-0.06,0.19,-0.16,0.25,-0.3c0.05,-0.13,0.08,-0.49,0.08,-1.06l0,-7.4c0,-0.5,-0.02,-0.82,-0.06,-0.96c-0.04,-0.13,-0.11,-0.23,-0.21,-0.3c-0.1,-0.06,-0.23,-0.1,-0.4,-0.1c-0.13,0,-0.3,0.03,-0.52,0.11l-0.1,-0.27m2.73,1.35l0,2.92c0,0.63,0.02,1.04,0.07,1.24c0.08,0.33,0.27,0.62,0.58,0.87c0.31,0.25,0.7,0.37,1.17,0.37c0.56,0,1.03,-0.22,1.38,-0.66c0.46,-0.58,0.69,-1.39,0.69,-2.45c0,-1.19,-0.26,-2.11,-0.78,-2.76c-0.36,-0.44,-0.79,-0.66,-1.3,-0.66c-0.27,0,-0.54,0.06,-0.81,0.2c-0.2,0.1,-0.54,0.41,-1.01,0.92m7.89,0.81c0,1.16,0.27,2.07,0.84,2.73c0.56,0.66,1.23,0.99,2,0.99c0.51,0,0.95,-0.14,1.33,-0.42c0.37,-0.28,0.69,-0.76,0.95,-1.44l0.26,0.17c-0.11,0.78,-0.46,1.49,-1.04,2.13c-0.57,0.64,-1.29,0.96,-2.16,0.96c-0.93,0,-1.74,-0.36,-2.41,-1.09c-0.66,-0.73,-1,-1.71,-1,-2.95c0,-1.33,0.34,-2.38,1.02,-3.13c0.68,-0.74,1.54,-1.12,2.58,-1.12c0.87,0,1.59,0.28,2.16,0.86c0.56,0.57,0.84,1.35,0.84,2.31l-5.4,0m0,-0.49l3.62,0c-0.02,-0.5,-0.08,-0.85,-0.17,-1.05c-0.14,-0.31,-0.35,-0.56,-0.63,-0.75c-0.28,-0.18,-0.57,-0.27,-0.88,-0.27c-0.47,0,-0.89,0.18,-1.26,0.55c-0.37,0.36,-0.59,0.87,-0.65,1.53m8.74,-2.68l0,1.76c0.65,-1.17,1.32,-1.76,2.01,-1.76c0.31,0,0.57,0.09,0.77,0.28c0.2,0.19,0.3,0.41,0.3,0.66c0,0.22,-0.07,0.4,-0.22,0.56c-0.14,0.15,-0.32,0.23,-0.52,0.23c-0.2,0,-0.42,-0.09,-0.67,-0.29c-0.24,-0.19,-0.43,-0.29,-0.55,-0.29c-0.1,0,-0.21,0.05,-0.33,0.17c-0.25,0.23,-0.52,0.61,-0.79,1.15l0,3.75c0,0.43,0.05,0.75,0.16,0.98c0.07,0.15,0.2,0.28,0.39,0.38c0.18,0.1,0.45,0.15,0.81,0.15l0,0.3l-4,0l0,-0.3c0.39,0,0.69,-0.06,0.88,-0.18c0.14,-0.09,0.24,-0.23,0.29,-0.43c0.02,-0.09,0.04,-0.37,0.04,-0.82l0,-3.03c0,-0.91,-0.01,-1.45,-0.05,-1.62c-0.03,-0.17,-0.1,-0.3,-0.2,-0.38c-0.09,-0.07,-0.22,-0.11,-0.37,-0.11c-0.17,0,-0.37,0.04,-0.59,0.12l-0.08,-0.3l2.36,-0.95l0.35,0m7.97,6.92c-0.8,0.62,-1.3,0.97,-1.51,1.07c-0.3,0.14,-0.63,0.21,-0.98,0.21c-0.54,0,-0.98,-0.18,-1.33,-0.55c-0.35,-0.37,-0.52,-0.85,-0.52,-1.46c0,-0.38,0.08,-0.71,0.25,-0.99c0.23,-0.38,0.64,-0.75,1.21,-1.09c0.57,-0.34,1.53,-0.75,2.88,-1.24l0,-0.3c0,-0.78,-0.12,-1.31,-0.37,-1.6c-0.24,-0.29,-0.6,-0.43,-1.08,-0.43c-0.35,0,-0.64,0.09,-0.85,0.28c-0.21,0.19,-0.32,0.41,-0.32,0.66l0.01,0.49c0,0.26,-0.06,0.46,-0.2,0.6c-0.13,0.14,-0.3,0.21,-0.52,0.21c-0.21,0,-0.38,-0.07,-0.51,-0.22c-0.13,-0.14,-0.2,-0.35,-0.2,-0.6c0,-0.49,0.25,-0.94,0.75,-1.35c0.5,-0.4,1.2,-0.61,2.11,-0.61c0.69,0,1.26,0.11,1.7,0.35c0.33,0.17,0.58,0.45,0.74,0.82c0.1,0.24,0.15,0.74,0.15,1.5l0,2.65c0,0.74,0.01,1.2,0.04,1.37c0.02,0.16,0.07,0.28,0.14,0.33c0.06,0.05,0.14,0.08,0.22,0.08c0.09,0,0.17,-0.01,0.23,-0.05c0.11,-0.07,0.35,-0.28,0.69,-0.62l0,0.47c-0.63,0.85,-1.24,1.28,-1.82,1.28c-0.27,0,-0.5,-0.09,-0.66,-0.28c-0.16,-0.19,-0.25,-0.52,-0.25,-0.99m0,-0.55l0,-2.98c-0.85,0.34,-1.41,0.58,-1.66,0.72c-0.45,0.25,-0.77,0.51,-0.96,0.78c-0.19,0.27,-0.29,0.57,-0.29,0.89c0,0.41,0.12,0.75,0.36,1.02c0.24,0.27,0.52,0.4,0.84,0.4c0.43,0,1,-0.28,1.7,-0.85m5.6,-8.71l0,2.57l1.82,0l0,0.59l-1.82,0l0,5.07c0,0.5,0.07,0.84,0.21,1.02c0.14,0.17,0.33,0.26,0.55,0.26c0.18,0,0.37,-0.05,0.54,-0.17c0.17,-0.11,0.31,-0.28,0.41,-0.51l0.33,0c-0.19,0.55,-0.48,0.97,-0.84,1.26c-0.36,0.28,-0.74,0.42,-1.12,0.42c-0.26,0,-0.51,-0.07,-0.76,-0.21c-0.25,-0.14,-0.43,-0.35,-0.55,-0.62c-0.11,-0.27,-0.17,-0.68,-0.17,-1.25l0,-5.26l-1.23,0l0,-0.28c0.31,-0.12,0.63,-0.33,0.96,-0.63c0.32,-0.29,0.61,-0.65,0.87,-1.06c0.13,-0.21,0.31,-0.61,0.54,-1.18l0.26,0m9.44,2.57l0,4.74c0,0.9,0.02,1.45,0.06,1.66c0.04,0.2,0.11,0.34,0.2,0.42c0.09,0.07,0.2,0.11,0.32,0.11c0.17,0,0.37,-0.04,0.59,-0.14l0.12,0.29l-2.34,0.96l-0.38,0l0,-1.65c-0.67,0.72,-1.18,1.18,-1.53,1.37c-0.35,0.18,-0.72,0.28,-1.12,0.28c-0.43,0,-0.81,-0.12,-1.14,-0.38c-0.32,-0.25,-0.54,-0.57,-0.67,-0.97c-0.12,-0.39,-0.18,-0.96,-0.18,-1.69l0,-3.49c0,-0.36,-0.04,-0.62,-0.12,-0.76c-0.08,-0.14,-0.19,-0.25,-0.35,-0.32c-0.15,-0.07,-0.43,-0.11,-0.85,-0.1l0,-0.31l2.74,0l0,5.23c0,0.72,0.12,1.2,0.38,1.43c0.25,0.22,0.56,0.34,0.91,0.34c0.24,0,0.52,-0.07,0.83,-0.23c0.31,-0.15,0.67,-0.44,1.1,-0.87l0,-4.43c0,-0.44,-0.08,-0.74,-0.24,-0.9c-0.16,-0.15,-0.5,-0.24,-1.01,-0.25l0,-0.31l2.66,0m4.17,-0.23l0,1.76c0.65,-1.17,1.32,-1.76,2.01,-1.76c0.31,0,0.57,0.09,0.77,0.28c0.2,0.19,0.3,0.41,0.3,0.66c0,0.22,-0.07,0.4,-0.22,0.56c-0.14,0.15,-0.32,0.23,-0.52,0.23c-0.2,0,-0.42,-0.09,-0.67,-0.29c-0.24,-0.19,-0.43,-0.29,-0.55,-0.29c-0.1,0,-0.21,0.05,-0.33,0.17c-0.25,0.23,-0.52,0.61,-0.79,1.15l0,3.75c0,0.43,0.05,0.75,0.16,0.98c0.07,0.15,0.2,0.28,0.39,0.38c0.18,0.1,0.45,0.15,0.81,0.15l0,0.3l-4,0l0,-0.3c0.39,0,0.69,-0.06,0.88,-0.18c0.14,-0.09,0.24,-0.23,0.29,-0.43c0.02,-0.09,0.04,-0.37,0.04,-0.82l0,-3.03c0,-0.91,-0.01,-1.45,-0.05,-1.62c-0.03,-0.17,-0.1,-0.3,-0.2,-0.38c-0.09,-0.07,-0.22,-0.11,-0.37,-0.11c-0.17,0,-0.37,0.04,-0.59,0.12l-0.08,-0.3l2.36,-0.95l0.35,0m4.85,3.17c0,1.16,0.27,2.07,0.84,2.73c0.56,0.66,1.23,0.99,2,0.99c0.51,0,0.95,-0.14,1.33,-0.42c0.37,-0.28,0.69,-0.76,0.95,-1.44l0.26,0.17c-0.11,0.78,-0.46,1.49,-1.04,2.13c-0.57,0.64,-1.29,0.96,-2.16,0.96c-0.93,0,-1.74,-0.36,-2.41,-1.09c-0.66,-0.73,-1,-1.71,-1,-2.95c0,-1.33,0.34,-2.38,1.02,-3.13c0.68,-0.74,1.54,-1.12,2.58,-1.12c0.87,0,1.59,0.28,2.16,0.86c0.56,0.57,0.84,1.35,0.84,2.31l-5.4,0m0,-0.49l3.62,0c-0.02,-0.5,-0.08,-0.85,-0.17,-1.05c-0.14,-0.31,-0.35,-0.56,-0.63,-0.75c-0.28,-0.18,-0.57,-0.27,-0.88,-0.27c-0.47,0,-0.89,0.18,-1.26,0.55c-0.37,0.36,-0.59,0.87,-0.65,1.53m15.47,8.84l-3.75,0l0,-15.32l3.75,0l0,0.67l-2.47,0l0,13.97l2.47,0l0,0.66m4.09,-15.31c0.73,0,1.35,0.25,1.86,0.76c0.5,0.51,0.76,1.13,0.76,1.86c0,0.72,-0.25,1.34,-0.76,1.85c-0.51,0.51,-1.13,0.76,-1.86,0.76c-0.72,0,-1.34,-0.25,-1.85,-0.76c-0.51,-0.51,-0.76,-1.13,-0.76,-1.85c0,-0.72,0.25,-1.35,0.76,-1.86c0.5,-0.51,1.12,-0.76,1.85,-0.76m0,0.71c-0.53,0,-0.98,0.18,-1.35,0.55c-0.37,0.37,-0.55,0.82,-0.55,1.34c0,0.52,0.18,0.97,0.55,1.34c0.37,0.37,0.82,0.56,1.35,0.56c0.52,0,0.97,-0.18,1.34,-0.56c0.37,-0.37,0.55,-0.82,0.55,-1.34c0,-0.52,-0.18,-0.97,-0.55,-1.34c-0.37,-0.37,-0.82,-0.55,-1.34,-0.55m14.07,-0.72l0.26,3.93l-0.26,0c-0.35,-1.17,-0.85,-2.02,-1.51,-2.54c-0.65,-0.51,-1.44,-0.77,-2.35,-0.77c-0.76,0,-1.46,0.19,-2.08,0.58c-0.62,0.39,-1.1,1.01,-1.46,1.86c-0.35,0.85,-0.53,1.91,-0.53,3.18c0,1.04,0.16,1.95,0.5,2.72c0.33,0.76,0.84,1.35,1.51,1.76c0.67,0.4,1.44,0.61,2.31,0.61c0.75,0,1.41,-0.16,1.99,-0.48c0.57,-0.32,1.2,-0.96,1.89,-1.91l0.26,0.17c-0.58,1.03,-1.25,1.78,-2.03,2.26c-0.77,0.47,-1.69,0.71,-2.76,0.71c-1.91,0,-3.4,-0.71,-4.46,-2.13c-0.78,-1.05,-1.17,-2.3,-1.17,-3.74c0,-1.15,0.25,-2.21,0.77,-3.18c0.51,-0.96,1.23,-1.71,2.14,-2.25c0.9,-0.53,1.9,-0.79,2.97,-0.79c0.83,0,1.66,0.2,2.47,0.61c0.23,0.12,0.41,0.18,0.51,0.18c0.15,0,0.28,-0.05,0.4,-0.16c0.14,-0.15,0.25,-0.36,0.31,-0.64l0.29,0m1.77,0l3.75,0l0,15.32l-3.75,0l0,-0.67l2.47,0l0,-13.97l-2.47,0l0,-0.67" fill="#000000" stroke="none" fill-opacity="1"/>
</g>
<path d="m47.71,471.63c0,-1.32,0.19,-2.45,0.59,-3.41c0.39,-0.95,0.92,-1.66,1.58,-2.13c0.51,-0.37,1.04,-0.55,1.58,-0.55c0.88,0,1.68,0.45,2.39,1.35c0.88,1.12,1.32,2.64,1.32,4.56c0,1.34,-0.19,2.48,-0.58,3.42c-0.38,0.93,-0.88,1.62,-1.48,2.04c-0.6,0.42,-1.18,0.63,-1.73,0.63c-1.1,0,-2.02,-0.65,-2.75,-1.95c-0.62,-1.1,-0.93,-2.42,-0.93,-3.97m1.67,0.21c0,1.59,0.19,2.89,0.58,3.9c0.32,0.84,0.8,1.27,1.45,1.27c0.3,0,0.62,-0.13,0.95,-0.41c0.33,-0.27,0.58,-0.73,0.75,-1.38c0.26,-0.98,0.39,-2.36,0.39,-4.14c0,-1.32,-0.13,-2.42,-0.41,-3.3c-0.2,-0.65,-0.46,-1.11,-0.79,-1.39c-0.23,-0.18,-0.51,-0.28,-0.84,-0.28c-0.38,0,-0.73,0.17,-1.03,0.52c-0.41,0.47,-0.68,1.21,-0.83,2.23c-0.14,1.01,-0.22,2.01,-0.22,2.99" fill="#000000" stroke="none" fill-opacity="1"/>
<path d="m45.93,379.81l-0.66,1.45l-3.48,0l-0.76,1.55c1.5,0.22,2.7,0.78,3.58,1.68c0.75,0.77,1.13,1.68,1.13,2.73c0,0.6,-0.12,1.17,-0.37,1.69c-0.24,0.51,-0.55,0.95,-0.93,1.32c-0.37,0.36,-0.79,0.65,-1.25,0.87c-0.65,0.31,-1.32,0.47,-2.01,0.47c-0.69,0,-1.2,-0.11,-1.51,-0.35c-0.31,-0.23,-0.47,-0.49,-0.47,-0.78c0,-0.15,0.06,-0.3,0.19,-0.42c0.13,-0.12,0.29,-0.18,0.49,-0.18c0.14,0,0.27,0.02,0.38,0.06c0.11,0.04,0.3,0.16,0.56,0.35c0.42,0.29,0.86,0.44,1.3,0.44c0.66,0,1.25,-0.25,1.75,-0.75c0.5,-0.5,0.75,-1.11,0.75,-1.84c0,-0.7,-0.22,-1.35,-0.67,-1.96c-0.45,-0.6,-1.07,-1.07,-1.86,-1.4c-0.62,-0.25,-1.46,-0.4,-2.53,-0.44l2.22,-4.5l4.15,0m1.78,5.86c0,-1.32,0.19,-2.45,0.59,-3.41c0.39,-0.95,0.92,-1.66,1.58,-2.13c0.51,-0.37,1.04,-0.55,1.58,-0.55c0.88,0,1.68,0.45,2.39,1.35c0.88,1.12,1.32,2.64,1.32,4.56c0,1.34,-0.19,2.48,-0.58,3.42c-0.38,0.93,-0.88,1.62,-1.48,2.04c-0.6,0.42,-1.18,0.63,-1.73,0.63c-1.1,0,-2.02,-0.65,-2.75,-1.95c-0.62,-1.1,-0.93,-2.42,-0.93,-3.97m1.67,0.21c0,1.59,0.19,2.89,0.58,3.9c0.32,0.84,0.8,1.27,1.45,1.27c0.3,0,0.62,-0.13,0.95,-0.41c0.33,-0.27,0.58,-0.73,0.75,-1.38c0.26,-0.98,0.39,-2.36,0.39,-4.14c0,-1.32,-0.13,-2.42,-0.41,-3.3c-0.2,-0.65,-0.46,-1.11,-0.79,-1.39c-0.23,-0.18,-0.51,-0.28,-0.84,-0.28c-0.38,0,-0.73,0.17,-1.03,0.52c-0.41,0.47,-0.68,1.21,-0.83,2.23c-0.14,1.01,-0.22,2.01,-0.22,2.99" fill="#000000" stroke="none" fill-opacity="1"/>
<path d="m31.63,294.99l2.81,-1.37l0.28,0l0,9.78c0,0.64,0.02,1.05,0.08,1.21c0.05,0.15,0.16,0.28,0.33,0.36c0.17,0.08,0.51,0.13,1.04,0.14l0,0.31l-4.35,0l0,-0.31c0.54,-0.01,0.9,-0.05,1.05,-0.14c0.15,-0.08,0.27,-0.19,0.33,-0.33c0.06,-0.13,0.09,-0.55,0.09,-1.25l0,-6.25c0,-0.84,-0.02,-1.38,-0.08,-1.62c-0.04,-0.18,-0.11,-0.31,-0.21,-0.4c-0.1,-0.08,-0.23,-0.12,-0.37,-0.12c-0.21,0,-0.5,0.08,-0.87,0.26l-0.12,-0.26m7.33,4.72c0,-1.32,0.19,-2.45,0.59,-3.41c0.39,-0.95,0.92,-1.66,1.58,-2.13c0.51,-0.37,1.04,-0.55,1.58,-0.55c0.88,0,1.68,0.45,2.39,1.35c0.88,1.12,1.32,2.64,1.32,4.56c0,1.34,-0.19,2.48,-0.58,3.42c-0.38,0.93,-0.88,1.62,-1.48,2.04c-0.6,0.42,-1.18,0.63,-1.73,0.63c-1.1,0,-2.02,-0.65,-2.75,-1.95c-0.62,-1.1,-0.93,-2.42,-0.93,-3.97m1.67,0.21c0,1.59,0.19,2.89,0.58,3.9c0.32,0.84,0.8,1.27,1.45,1.27c0.3,0,0.62,-0.13,0.95,-0.41c0.33,-0.27,0.58,-0.73,0.75,-1.38c0.26,-0.98,0.39,-2.36,0.39,-4.14c0,-1.32,-0.13,-2.42,-0.41,-3.3c-0.2,-0.65,-0.46,-1.11,-0.79,-1.39c-0.23,-0.18,-0.51,-0.28,-0.84,-0.28c-0.38,0,-0.73,0.17,-1.03,0.52c-0.41,0.47,-0.68,1.21,-0.83,2.23c-0.14,1.01,-0.22,2.01,-0.22,2.99m7.07,-0.21c0,-1.32,0.19,-2.45,0.59,-3.41c0.39,-0.95,0.92,-1.66,1.58,-2.13c0.51,-0.37,1.04,-0.55,1.58,-0.55c0.88,0,1.68,0.45,2.39,1.35c0.88,1.12,1.32,2.64,1.32,4.56c0,1.34,-0.19,2.48,-0.58,3.42c-0.38,0.93,-0.88,1.62,-1.48,2.04c-0.6,0.42,-1.18,0.63,-1.73,0.63c-1.1,0,-2.02,-0.65,-2.75,-1.95c-0.62,-1.1,-0.93,-2.42,-0.93,-3.97m1.67,0.21c0,1.59,0.19,2.89,0.58,3.9c0.32,0.84,0.8,1.27,1.45,1.27c0.3,0,0.62,-0.13,0.95,-0.41c0.33,-0.27,0.58,-0.73,0.75,-1.38c0.26,-0.98,0.39,-2.36,0.39,-4.14c0,-1.32,-0.13,-2.42,-0.41,-3.3c-0.2,-0.65,-0.46,-1.11,-0.79,-1.39c-0.23,-0.18,-0.51,-0.28,-0.84,-0.28c-0.38,0,-0.73,0.17,-1.03,0.52c-0.41,0.47,-0.68,1.21,-0.83,2.23c-0.14,1.01,-0.22,2.01,-0.22,2.99" fill="#000000" stroke="none" fill-opacity="1"/>
<path d="m31.63,209.03l2.81,-1.37l0.28,0l0,9.78c0,0.64,0.02,1.05,0.08,1.21c0.05,0.15,0.16,0.28,0.33,0.36c0.17,0.08,0.51,0.13,1.04,0.14l0,0.31l-4.35,0l0,-0.31c0.54,-0.01,0.9,-0.05,1.05,-0.14c0.15,-0.08,0.27,-0.19,0.33,-0.33c0.06,-0.13,0.09,-0.55,0.09,-1.25l0,-6.25c0,-0.84,-0.02,-1.38,-0.08,-1.62c-0.04,-0.18,-0.11,-0.31,-0.21,-0.4c-0.1,-0.08,-0.23,-0.12,-0.37,-0.12c-0.21,0,-0.5,0.08,-0.87,0.26l-0.12,-0.26m14.29,-1.13l-0.66,1.45l-3.48,0l-0.76,1.55c1.5,0.22,2.7,0.78,3.58,1.68c0.75,0.77,1.13,1.68,1.13,2.73c0,0.6,-0.12,1.17,-0.37,1.69c-0.24,0.51,-0.55,0.95,-0.93,1.32c-0.37,0.36,-0.79,0.65,-1.25,0.87c-0.65,0.31,-1.32,0.47,-2.01,0.47c-0.69,0,-1.2,-0.11,-1.51,-0.35c-0.31,-0.23,-0.47,-0.49,-0.47,-0.78c0,-0.15,0.06,-0.3,0.19,-0.42c0.13,-0.12,0.29,-0.18,0.49,-0.18c0.14,0,0.27,0.02,0.38,0.06c0.11,0.04,0.3,0.16,0.56,0.35c0.42,0.29,0.86,0.44,1.3,0.44c0.66,0,1.25,-0.25,1.75,-0.75c0.5,-0.5,0.75,-1.11,0.75,-1.84c0,-0.7,-0.22,-1.35,-0.67,-1.96c-0.45,-0.6,-1.07,-1.07,-1.86,-1.4c-0.62,-0.25,-1.46,-0.4,-2.53,-0.44l2.22,-4.5l4.15,0m1.78,5.86c0,-1.32,0.19,-2.45,0.59,-3.41c0.39,-0.95,0.92,-1.66,1.58,-2.13c0.51,-0.37,1.04,-0.55,1.58,-0.55c0.88,0,1.68,0.45,2.39,1.35c0.88,1.12,1.32,2.64,1.32,4.56c0,1.34,-0.19,2.48,-0.58,3.42c-0.38,0.93,-0.88,1.62,-1.48,2.04c-0.6,0.42,-1.18,0.63,-1.73,0.63c-1.1,0,-2.02,-0.65,-2.75,-1.95c-0.62,-1.1,-0.93,-2.42,-0.93,-3.97m1.67,0.21c0,1.59,0.19,2.89,0.58,3.9c0.32,0.84,0.8,1.27,1.45,1.27c0.3,0,0.62,-0.13,0.95,-0.41c0.33,-0.27,0.58,-0.73,0.75,-1.38c0.26,-0.98,0.39,-2.36,0.39,-4.14c0,-1.32,-0.13,-2.42,-0.41,-3.3c-0.2,-0.65,-0.46,-1.11,-0.79,-1.39c-0.23,-0.18,-0.51,-0.28,-0.84,-0.28c-0.38,0,-0.73,0.17,-1.03,0.52c-0.41,0.47,-0.68,1.21,-0.83,2.23c-0.14,1.01,-0.22,2.01,-0.22,2.99" fill="#000000" stroke="none" fill-opacity="1"/>
<path d="m37.6,131.29l-0.81,2.22l-6.83,0l0,-0.31c2.01,-1.83,3.42,-3.33,4.24,-4.49c0.82,-1.16,1.23,-2.22,1.23,-3.18c0,-0.73,-0.22,-1.33,-0.67,-1.81c-0.45,-0.47,-0.98,-0.7,-1.61,-0.7c-0.56,0,-1.07,0.16,-1.53,0.5c-0.45,0.33,-0.78,0.82,-1,1.46l-0.31,0c0.14,-1.05,0.5,-1.86,1.09,-2.42c0.58,-0.56,1.32,-0.84,2.2,-0.84c0.94,0,1.72,0.3,2.35,0.9c0.62,0.6,0.94,1.31,0.94,2.13c0,0.58,-0.13,1.17,-0.4,1.76c-0.42,0.92,-1.1,1.89,-2.05,2.92c-1.41,1.55,-2.3,2.48,-2.65,2.8l3.02,0c0.61,0,1.04,-0.02,1.29,-0.06c0.24,-0.04,0.47,-0.13,0.67,-0.27c0.19,-0.13,0.37,-0.33,0.52,-0.59l0.31,0m1.35,-3.49c0,-1.32,0.19,-2.45,0.59,-3.41c0.39,-0.95,0.92,-1.66,1.58,-2.13c0.51,-0.37,1.04,-0.55,1.58,-0.55c0.88,0,1.68,0.45,2.39,1.35c0.88,1.12,1.32,2.64,1.32,4.56c0,1.34,-0.19,2.48,-0.58,3.42c-0.38,0.93,-0.88,1.62,-1.48,2.04c-0.6,0.42,-1.18,0.63,-1.73,0.63c-1.1,0,-2.02,-0.65,-2.75,-1.95c-0.62,-1.1,-0.93,-2.42,-0.93,-3.97m1.67,0.21c0,1.59,0.19,2.89,0.58,3.9c0.32,0.84,0.8,1.27,1.45,1.27c0.3,0,0.62,-0.13,0.95,-0.41c0.33,-0.27,0.58,-0.73,0.75,-1.38c0.26,-0.98,0.39,-2.36,0.39,-4.14c0,-1.32,-0.13,-2.42,-0.41,-3.3c-0.2,-0.65,-0.46,-1.11,-0.79,-1.39c-0.23,-0.18,-0.51,-0.28,-0.84,-0.28c-0.38,0,-0.73,0.17,-1.03,0.52c-0.41,0.47,-0.68,1.21,-0.83,2.23c-0.14,1.01,-0.22,2.01,-0.22,2.99m7.07,-0.21c0,-1.32,0.19,-2.45,0.59,-3.41c0.39,-0.95,0.92,-1.66,1.58,-2.13c0.51,-0.37,1.04,-0.55,1.58,-0.55c0.88,0,1.68,0.45,2.39,1.35c0.88,1.12,1.32,2.64,1.32,4.56c0,1.34,-0.19,2.48,-0.58,3.42c-0.38,0.93,-0.88,1.62,-1.48,2.04c-0.6,0.42,-1.18,0.63,-1.73,0.63c-1.1,0,-2.02,-0.65,-2.75,-1.95c-0.62,-1.1,-0.93,-2.42,-0.93,-3.97m1.67,0.21c0,1.59,0.19,2.89,0.58,3.9c0.32,0.84,0.8,1.27,1.45,1.27c0.3,0,0.62,-0.13,0.95,-0.41c0.33,-0.27,0.58,-0.73,0.75,-1.38c0.26,-0.98,0.39,-2.36,0.39,-4.14c0,-1.32,-0.13,-2.42,-0.41,-3.3c-0.2,-0.65,-0.46,-1.11,-0.79,-1.39c-0.23,-0.18,-0.51,-0.28,-0.84,-0.28c-0.38,0,-0.73,0.17,-1.03,0.52c-0.41,0.47,-0.68,1.21,-0.83,2.23c-0.14,1.01,-0.22,2.01,-0.22,2.99" fill="#000000" stroke="none" fill-opacity="1"/>
<path d="m37.6,45.33l-0.81,2.22l-6.83,0l0,-0.31c2.01,-1.83,3.42,-3.33,4.24,-4.49c0.82,-1.16,1.23,-2.22,1.23,-3.18c0,-0.73,-0.22,-1.33,-0.67,-1.81c-0.45,-0.47,-0.98,-0.7,-1.61,-0.7c-0.56,0,-1.07,0.16,-1.53,0.5c-0.45,0.33,-0.78,0.82,-1,1.46l-0.31,0c0.14,-1.05,0.5,-1.86,1.09,-2.42c0.58,-0.56,1.32,-0.84,2.2,-0.84c0.94,0,1.72,0.3,2.35,0.9c0.62,0.6,0.94,1.31,0.94,2.13c0,0.58,-0.13,1.17,-0.4,1.76c-0.42,0.92,-1.1,1.89,-2.05,2.92c-1.41,1.55,-2.3,2.48,-2.65,2.8l3.02,0c0.61,0,1.04,-0.02,1.29,-0.06c0.24,-0.04,0.47,-0.13,0.67,-0.27c0.19,-0.13,0.37,-0.33,0.52,-0.59l0.31,0m8.32,-9.35l-0.66,1.45l-3.48,0l-0.76,1.55c1.5,0.22,2.7,0.78,3.58,1.68c0.75,0.77,1.13,1.68,1.13,2.73c0,0.6,-0.12,1.17,-0.37,1.69c-0.24,0.51,-0.55,0.95,-0.93,1.32c-0.37,0.36,-0.79,0.65,-1.25,0.87c-0.65,0.31,-1.32,0.47,-2.01,0.47c-0.69,0,-1.2,-0.11,-1.51,-0.35c-0.31,-0.23,-0.47,-0.49,-0.47,-0.78c0,-0.15,0.06,-0.3,0.19,-0.42c0.13,-0.12,0.29,-0.18,0.49,-0.18c0.14,0,0.27,0.02,0.38,0.06c0.11,0.04,0.3,0.16,0.56,0.35c0.42,0.29,0.86,0.44,1.3,0.44c0.66,0,1.25,-0.25,1.75,-0.75c0.5,-0.5,0.75,-1.11,0.75,-1.84c0,-0.7,-0.22,-1.35,-0.67,-1.96c-0.45,-0.6,-1.07,-1.07,-1.86,-1.4c-0.62,-0.25,-1.46,-0.4,-2.53,-0.44l2.22,-4.5l4.15,0m1.78,5.86c0,-1.32,0.19,-2.45,0.59,-3.41c0.39,-0.95,0.92,-1.66,1.58,-2.13c0.51,-0.37,1.04,-0.55,1.58,-0.55c0.88,0,1.68,0.45,2.39,1.35c0.88,1.12,1.32,2.64,1.32,4.56c0,1.34,-0.19,2.48,-0.58,3.42c-0.38,0.93,-0.88,1.62,-1.48,2.04c-0.6,0.42,-1.18,0.63,-1.73,0.63c-1.1,0,-2.02,-0.65,-2.75,-1.95c-0.62,-1.1,-0.93,-2.42,-0.93,-3.97m1.67,0.21c0,1.59,0.19,2.89,0.58,3.9c0.32,0.84,0.8,1.27,1.45,1.27c0.3,0,0.62,-0.13,0.95,-0.41c0.33,-0.27,0.58,-0.73,0.75,-1.38c0.26,-0.98,0.39,-2.36,0.39,-4.14c0,-1.32,-0.13,-2.42,-0.41,-3.3c-0.2,-0.65,-0.46,-1.11,-0.79,-1.39c-0.23,-0.18,-0.51,-0.28,-0.84,-0.28c-0.38,0,-0.73,0.17,-1.03,0.52c-0.41,0.47,-0.68,1.21,-0.83,2.23c-0.14,1.01,-0.22,2.01,-0.22,2.99" fill="#000000" stroke="none" fill-opacity="1"/>
</g>
<g fill="none" stroke-linecap="butt" stroke-width="0.62">
<path d="M60.23,471.25l464.17,0"/>
<path d="M60.23,471.25l0,-3.75M93.39,471.25l0,-3.75M126.54,471.25l0,-3.75M159.7,471.25l0,-3.75M192.85,471.25l0,-3.75M226.01,471.25l0,-3.75M259.16,471.25l0,-3.75M292.32,471.25l0,-3.75M325.47,471.25l0,-3.75M358.63,471.25l0,-3.75M391.78,471.25l0,-3.75M424.94,471.25l0,-3.75M458.09,471.25l0,-3.75M491.25,471.25l0,-3.75M524.4,471.25l0,-3.75"/>
<path d="M60.23,471.25l0,-7.5M126.54,471.25l0,-7.5M192.85,471.25l0,-7.5M259.16,471.25l0,-7.5M325.47,471.25l0,-7.5M391.78,471.25l0,-7.5M458.09,471.25l0,-7.5M524.4,471.25l0,-7.5"/>
<path d="M60.23,7.08l464.17,0"/>
<path d="M60.23,7.08l0,3.75M93.39,7.08l0,3.75M126.54,7.08l0,3.75M159.7,7.08l0,3.75M192.85,7.08l0,3.75M226.01,7.08l0,3.75M259.16,7.08l0,3.75M292.32,7.08l0,3.75M325.47,7.08l0,3.75M358.63,7.08l0,3.75M391.78,7.08l0,3.75M424.94,7.08l0,3.75M458.09,7.08l0,3.75M491.25,7.08l0,3.75M524.4,7.08l0,3.75"/>
<path d="M60.23,7.08l0,7.5M126.54,7.08l0,7.5M192.85,7.08l0,7.5M259.16,7.08l0,7.5M325.47,7.08l0,7.5M391.78,7.08l0,7.5M458.09,7.08l0,7.5M524.4,7.08l0,7.5"/>
</g>
<g fill="none" stroke-width="1">
<path d="m268.17,505.26l0,2.57l1.82,0l0,0.59l-1.82,0l0,5.07c0,0.5,0.07,0.84,0.21,1.02c0.14,0.17,0.33,0.26,0.55,0.26c0.18,0,0.37,-0.05,0.54,-0.17c0.17,-0.11,0.31,-0.28,0.41,-0.51l0.33,0c-0.19,0.55,-0.48,0.97,-0.84,1.26c-0.36,0.28,-0.74,0.42,-1.12,0.42c-0.26,0,-0.51,-0.07,-0.76,-0.21c-0.25,-0.14,-0.43,-0.35,-0.55,-0.62c-0.11,-0.27,-0.17,-0.68,-0.17,-1.25l0,-5.26l-1.23,0l0,-0.28c0.31,-0.12,0.63,-0.33,0.96,-0.63c0.32,-0.29,0.61,-0.65,0.87,-1.06c0.13,-0.21,0.31,-0.61,0.54,-1.18l0.26,0m4.57,-1.75c0.23,0,0.44,0.08,0.61,0.25c0.16,0.16,0.25,0.37,0.25,0.61c0,0.23,-0.08,0.44,-0.25,0.61c-0.16,0.17,-0.37,0.25,-0.61,0.25c-0.23,0,-0.44,-0.08,-0.61,-0.25c-0.17,-0.17,-0.25,-0.37,-0.25,-0.61c0,-0.23,0.08,-0.44,0.25,-0.61c0.16,-0.16,0.37,-0.25,0.61,-0.25m0.7,4.09l0,6.28c0,0.48,0.03,0.81,0.1,0.97c0.07,0.16,0.17,0.28,0.31,0.36c0.13,0.07,0.39,0.11,0.76,0.11l0,0.3l-3.8,0l0,-0.3c0.38,0,0.63,-0.03,0.76,-0.11c0.13,-0.07,0.23,-0.19,0.31,-0.36c0.07,-0.17,0.11,-0.49,0.11,-0.98l0,-3.01c0,-0.84,-0.02,-1.39,-0.07,-1.64c-0.03,-0.18,-0.1,-0.3,-0.18,-0.38c-0.08,-0.07,-0.2,-0.1,-0.35,-0.1c-0.16,0,-0.35,0.04,-0.58,0.12l-0.12,-0.3l2.35,-0.95l0.37,0m4.48,1.66c0.56,-0.56,0.9,-0.89,1,-0.98c0.25,-0.21,0.53,-0.38,0.82,-0.5c0.29,-0.11,0.58,-0.17,0.88,-0.17c0.48,0,0.91,0.14,1.26,0.42c0.35,0.28,0.58,0.69,0.7,1.23c0.58,-0.68,1.08,-1.13,1.48,-1.34c0.4,-0.21,0.82,-0.32,1.24,-0.32c0.41,0,0.78,0.1,1.1,0.32c0.32,0.21,0.57,0.56,0.76,1.04c0.12,0.33,0.18,0.84,0.18,1.55l0,3.36c0,0.48,0.03,0.82,0.11,1c0.05,0.12,0.16,0.23,0.31,0.32c0.15,0.08,0.4,0.13,0.75,0.13l0,0.3l-3.86,0l0,-0.3l0.16,0c0.33,0,0.59,-0.06,0.78,-0.19c0.13,-0.09,0.22,-0.23,0.28,-0.43c0.02,-0.09,0.03,-0.37,0.03,-0.82l0,-3.36c0,-0.63,-0.07,-1.08,-0.23,-1.35c-0.22,-0.36,-0.57,-0.54,-1.06,-0.54c-0.3,0,-0.6,0.07,-0.91,0.22c-0.3,0.15,-0.67,0.43,-1.1,0.84l-0.01,0.09l0.01,0.36l0,3.73c0,0.53,0.02,0.86,0.08,1c0.05,0.13,0.17,0.24,0.33,0.32c0.16,0.08,0.44,0.13,0.84,0.13l0,0.3l-3.95,0l0,-0.3c0.43,0,0.73,-0.05,0.89,-0.15c0.16,-0.1,0.27,-0.25,0.33,-0.46c0.02,-0.09,0.04,-0.37,0.04,-0.84l0,-3.36c0,-0.63,-0.09,-1.09,-0.28,-1.37c-0.25,-0.36,-0.6,-0.54,-1.05,-0.54c-0.3,0,-0.61,0.08,-0.91,0.24c-0.47,0.25,-0.83,0.53,-1.09,0.84l0,4.19c0,0.51,0.03,0.84,0.1,0.99c0.07,0.15,0.17,0.26,0.31,0.34c0.13,0.07,0.42,0.11,0.85,0.11l0,0.3l-3.87,0l0,-0.3c0.35,0,0.61,-0.03,0.75,-0.11c0.14,-0.07,0.25,-0.19,0.32,-0.36c0.07,-0.16,0.11,-0.49,0.11,-0.97l0,-2.99c0,-0.86,-0.02,-1.41,-0.07,-1.66c-0.03,-0.18,-0.1,-0.31,-0.18,-0.38c-0.08,-0.07,-0.2,-0.1,-0.35,-0.1c-0.15,0,-0.35,0.04,-0.57,0.12l-0.12,-0.3l2.35,-0.95l0.36,0l0,1.66m12.6,1.51c0,1.16,0.27,2.07,0.84,2.73c0.56,0.66,1.23,0.99,2,0.99c0.51,0,0.95,-0.14,1.33,-0.42c0.37,-0.28,0.69,-0.76,0.95,-1.44l0.26,0.17c-0.11,0.78,-0.46,1.49,-1.04,2.13c-0.57,0.64,-1.29,0.96,-2.16,0.96c-0.93,0,-1.74,-0.36,-2.41,-1.09c-0.66,-0.73,-1,-1.71,-1,-2.95c0,-1.33,0.34,-2.38,1.02,-3.13c0.68,-0.74,1.54,-1.12,2.58,-1.12c0.87,0,1.59,0.28,2.16,0.86c0.56,0.57,0.84,1.35,0.84,2.31l-5.4,0m0,-0.49l3.62,0c-0.02,-0.5,-0.08,-0.85,-0.17,-1.05c-0.14,-0.31,-0.35,-0.56,-0.63,-0.75c-0.28,-0.18,-0.57,-0.27,-0.88,-0.27c-0.47,0,-0.89,0.18,-1.26,0.55c-0.37,0.36,-0.59,0.87,-0.65,1.53m15.47,8.84l-3.75,0l0,-15.32l3.75,0l0,0.67l-2.47,0l0,13.97l2.47,0l0,0.66m6.23,-11.52l0,2.66l-0.28,0c-0.21,-0.83,-0.49,-1.4,-0.83,-1.7c-0.33,-0.3,-0.77,-0.45,-1.29,-0.45c-0.39,0,-0.71,0.1,-0.96,0.31c-0.24,0.21,-0.36,0.44,-0.36,0.7c0,0.31,0.09,0.59,0.27,0.82c0.17,0.23,0.53,0.48,1.07,0.74l1.24,0.6c1.15,0.56,1.73,1.3,1.73,2.23c0,0.71,-0.26,1.28,-0.8,1.72c-0.53,0.43,-1.14,0.65,-1.8,0.65c-0.47,0,-1.02,-0.08,-1.64,-0.25c-0.18,-0.05,-0.34,-0.08,-0.46,-0.08c-0.13,0,-0.23,0.07,-0.3,0.22l-0.28,0l0,-2.79l0.28,0c0.15,0.79,0.46,1.39,0.91,1.8c0.45,0.4,0.95,0.6,1.51,0.6c0.39,0,0.71,-0.11,0.96,-0.34c0.24,-0.23,0.37,-0.5,0.37,-0.83c0,-0.39,-0.13,-0.72,-0.41,-0.99c-0.27,-0.26,-0.82,-0.6,-1.65,-1.01c-0.82,-0.4,-1.36,-0.77,-1.62,-1.11c-0.25,-0.32,-0.38,-0.73,-0.38,-1.23c0,-0.64,0.22,-1.18,0.66,-1.61c0.44,-0.43,1.01,-0.64,1.71,-0.64c0.3,0,0.68,0.06,1.12,0.19c0.29,0.08,0.48,0.12,0.57,0.12c0.09,0,0.16,-0.02,0.21,-0.06c0.05,-0.04,0.11,-0.12,0.17,-0.26l0.28,0m1.84,-3.79l3.75,0l0,15.32l-3.75,0l0,-0.67l2.47,0l0,-13.97l-2.47,0l0,-0.67" fill="#000000" stroke="none" fill-opacity="1"/>
<path d="m56.49,485.53c0,-1.32,0.19,-2.45,0.59,-3.41c0.39,-0.95,0.92,-1.66,1.58,-2.13c0.51,-0.37,1.04,-0.55,1.58,-0.55c0.88,0,1.68,0.45,2.39,1.35c0.88,1.12,1.32,2.64,1.32,4.56c0,1.34,-0.19,2.48,-0.58,3.42c-0.38,0.93,-0.88,1.62,-1.48,2.04c-0.6,0.42,-1.18,0.63,-1.73,0.63c-1.1,0,-2.02,-0.65,-2.75,-1.95c-0.62,-1.1,-0.93,-2.42,-0.93,-3.97m1.67,0.21c0,1.59,0.19,2.89,0.58,3.9c0.32,0.84,0.8,1.27,1.45,1.27c0.3,0,0.62,-0.13,0.95,-0.41c0.33,-0.27,0.58,-0.73,0.75,-1.38c0.26,-0.98,0.39,-2.36,0.39,-4.14c0,-1.32,-0.13,-2.42,-0.41,-3.3c-0.2,-0.65,-0.46,-1.11,-0.79,-1.39c-0.23,-0.18,-0.51,-0.28,-0.84,-0.28c-0.38,0,-0.73,0.17,-1.03,0.52c-0.41,0.47,-0.68,1.21,-0.83,2.23c-0.14,1.01,-0.22,2.01,-0.22,2.99" fill="#000000" stroke="none" fill-opacity="1"/>
<path d="m125.39,479.67l-0.66,1.45l-3.48,0l-0.76,1.55c1.5,0.22,2.7,0.78,3.58,1.68c0.75,0.77,1.13,1.68,1.13,2.73c0,0.6,-0.12,1.17,-0.37,1.69c-0.24,0.51,-0.55,0.95,-0.93,1.32c-0.37,0.36,-0.79,0.65,-1.25,0.87c-0.65,0.31,-1.32,0.47,-2.01,0.47c-0.69,0,-1.2,-0.11,-1.51,-0.35c-0.31,-0.23,-0.47,-0.49,-0.47,-0.78c0,-0.15,0.06,-0.3,0.19,-0.42c0.13,-0.12,0.29,-0.18,0.49,-0.18c0.14,0,0.27,0.02,0.38,0.06c0.11,0.04,0.3,0.16,0.56,0.35c0.42,0.29,0.86,0.44,1.3,0.44c0.66,0,1.25,-0.25,1.75,-0.75c0.5,-0.5,0.75,-1.11,0.75,-1.84c0,-0.7,-0.22,-1.35,-0.67,-1.96c-0.45,-0.6,-1.07,-1.07,-1.86,-1.4c-0.62,-0.25,-1.46,-0.4,-2.53,-0.44l2.22,-4.5l4.15,0m1.78,5.86c0,-1.32,0.19,-2.45,0.59,-3.41c0.39,-0.95,0.92,-1.66,1.58,-2.13c0.51,-0.37,1.04,-0.55,1.58,-0.55c0.88,0,1.68,0.45,2.39,1.35c0.88,1.12,1.32,2.64,1.32,4.56c0,1.34,-0.19,2.48,-0.58,3.42c-0.38,0.93,-0.88,1.62,-1.48,2.04c-0.6,0.42,-1.18,0.63,-1.73,0.63c-1.1,0,-2.02,-0.65,-2.75,-1.95c-0.62,-1.1,-0.93,-2.42,-0.93,-3.97m1.67,0.21c0,1.59,0.19,2.89,0.58,3.9c0.32,0.84,0.8,1.27,1.45,1.27c0.3,0,0.62,-0.13,0.95,-0.41c0.33,-0.27,0.58,-0.73,0.75,-1.38c0.26,-0.98,0.39,-2.36,0.39,-4.14c0,-1.32,-0.13,-2.42,-0.41,-3.3c-0.2,-0.65,-0.46,-1.11,-0.79,-1.39c-0.23,-0.18,-0.51,-0.28,-0.84,-0.28c-0.38,0,-0.73,0.17,-1.03,0.52c-0.41,0.47,-0.68,1.21,-0.83,2.23c-0.14,1.01,-0.22,2.01,-0.22,2.99" fill="#000000" stroke="none" fill-opacity="1"/>
<path d="m181.78,480.8l2.81,-1.37l0.28,0l0,9.78c0,0.64,0.02,1.05,0.08,1.21c0.05,0.15,0.16,0.28,0.33,0.36c0.17,0.08,0.51,0.13,1.04,0.14l0,0.31l-4.35,0l0,-0.31c0.54,-0.01,0.9,-0.05,1.05,-0.14c0.15,-0.08,0.27,-0.19,0.33,-0.33c0.06,-0.13,0.09,-0.55,0.09,-1.25l0,-6.25c0,-0.84,-0.02,-1.38,-0.08,-1.62c-0.04,-0.18,-0.11,-0.31,-0.21,-0.4c-0.1,-0.08,-0.23,-0.12,-0.37,-0.12c-0.21,0,-0.5,0.08,-0.87,0.26l-0.12,-0.26m7.33,4.72c0,-1.32,0.19,-2.45,0.59,-3.41c0.39,-0.95,0.92,-1.66,1.58,-2.13c0.51,-0.37,1.04,-0.55,1.58,-0.55c0.88,0,1.68,0.45,2.39,1.35c0.88,1.12,1.32,2.64,1.32,4.56c0,1.34,-0.19,2.48,-0.58,3.42c-0.38,0.93,-0.88,1.62,-1.48,2.04c-0.6,0.42,-1.18,0.63,-1.73,0.63c-1.1,0,-2.02,-0.65,-2.75,-1.95c-0.62,-1.1,-0.93,-2.42,-0.93,-3.97m1.67,0.21c0,1.59,0.19,2.89,0.58,3.9c0.32,0.84,0.8,1.27,1.45,1.27c0.3,0,0.62,-0.13,0.95,-0.41c0.33,-0.27,0.58,-0.73,0.75,-1.38c0.26,-0.98,0.39,-2.36,0.39,-4.14c0,-1.32,-0.13,-2.42,-0.41,-3.3c-0.2,-0.65,-0.46,-1.11,-0.79,-1.39c-0.23,-0.18,-0.51,-0.28,-0.84,-0.28c-0.38,0,-0.73,0.17,-1.03,0.52c-0.41,0.47,-0.68,1.21,-0.83,2.23c-0.14,1.01,-0.22,2.01,-0.22,2.99m7.07,-0.21c0,-1.32,0.19,-2.45,0.59,-3.41c0.39,-0.95,0.92,-1.66,1.58,-2.13c0.51,-0.37,1.04,-0.55,1.58,-0.55c0.88,0,1.68,0.45,2.39,1.35c0.88,1.12,1.32,2.64,1.32,4.56c0,1.34,-0.19,2.48,-0.58,3.42c-0.38,0.93,-0.88,1.62,-1.48,2.04c-0.6,0.42,-1.18,0.63,-1.73,0.63c-1.1,0,-2.02,-0.65,-2.75,-1.95c-0.62,-1.1,-0.93,-2.42,-0.93,-3.97m1.67,0.21c0,1.59,0.19,2.89,0.58,3.9c0.32,0.84,0.8,1.27,1.45,1.27c0.3,0,0.62,-0.13,0.95,-0.41c0.33,-0.27,0.58,-0.73,0.75,-1.38c0.26,-0.98,0.39,-2.36,0.39,-4.14c0,-1.32,-0.13,-2.42,-0.41,-3.3c-0.2,-0.65,-0.46,-1.11,-0.79,-1.39c-0.23,-0.18,-0.51,-0.28,-0.84,-0.28c-0.38,0,-0.73,0.17,-1.03,0.52c-0.41,0.47,-0.68,1.21,-0.83,2.23c-0.14,1.01,-0.22,2.01,-0.22,2.99" fill="#000000" stroke="none" fill-opacity="1"/>
<path d="m248.09,480.8l2.81,-1.37l0.28,0l0,9.78c0,0.64,0.02,1.05,0.08,1.21c0.05,0.15,0.16,0.28,0.33,0.36c0.17,0.08,0.51,0.13,1.04,0.14l0,0.31l-4.35,0l0,-0.31c0.54,-0.01,0.9,-0.05,1.05,-0.14c0.15,-0.08,0.27,-0.19,0.33,-0.33c0.06,-0.13,0.09,-0.55,0.09,-1.25l0,-6.25c0,-0.84,-0.02,-1.38,-0.08,-1.62c-0.04,-0.18,-0.11,-0.31,-0.21,-0.4c-0.1,-0.08,-0.23,-0.12,-0.37,-0.12c-0.21,0,-0.5,0.08,-0.87,0.26l-0.12,-0.26m14.29,-1.13l-0.66,1.45l-3.48,0l-0.76,1.55c1.5,0.22,2.7,0.78,3.58,1.68c0.75,0.77,1.13,1.68,1.13,2.73c0,0.6,-0.12,1.17,-0.37,1.69c-0.24,0.51,-0.55,0.95,-0.93,1.32c-0.37,0.36,-0.79,0.65,-1.25,0.87c-0.65,0.31,-1.32,0.47,-2.01,0.47c-0.69,0,-1.2,-0.11,-1.51,-0.35c-0.31,-0.23,-0.47,-0.49,-0.47,-0.78c0,-0.15,0.06,-0.3,0.19,-0.42c0.13,-0.12,0.29,-0.18,0.49,-0.18c0.14,0,0.27,0.02,0.38,0.06c0.11,0.04,0.3,0.16,0.56,0.35c0.42,0.29,0.86,0.44,1.3,0.44c0.66,0,1.25,-0.25,1.75,-0.75c0.5,-0.5,0.75,-1.11,0.75,-1.84c0,-0.7,-0.22,-1.35,-0.67,-1.96c-0.45,-0.6,-1.07,-1.07,-1.86,-1.4c-0.62,-0.25,-1.46,-0.4,-2.53,-0.44l2.22,-4.5l4.15,0m1.78,5.86c0,-1.32,0.19,-2.45,0.59,-3.41c0.39,-0.95,0.92,-1.66,1.58,-2.13c0.51,-0.37,1.04,-0.55,1.58,-0.55c0.88,0,1.68,0.45,2.39,1.35c0.88,1.12,1.32,2.64,1.32,4.56c0,1.34,-0.19,2.48,-0.58,3.42c-0.38,0.93,-0.88,1.62,-1.48,2.04c-0.6,0.42,-1.18,0.63,-1.73,0.63c-1.1,0,-2.02,-0.65,-2.75,-1.95c-0.62,-1.1,-0.93,-2.42,-0.93,-3.97m1.67,0.21c0,1.59,0.19,2.89,0.58,3.9c0.32,0.84,0.8,1.27,1.45,1.27c0.3,0,0.62,-0.13,0.95,-0.41c0.33,-0.27,0.58,-0.73,0.75,-1.38c0.26,-0.98,0.39,-2.36,0.39,-4.14c0,-1.32,-0.13,-2.42,-0.41,-3.3c-0.2,-0.65,-0.46,-1.11,-0.79,-1.39c-0.23,-0.18,-0.51,-0.28,-0.84,-0.28c-0.38,0,-0.73,0.17,-1.03,0.52c-0.41,0.47,-0.68,1.21,-0.83,2.23c-0.14,1.01,-0.22,2.01,-0.22,2.99" fill="#000000" stroke="none" fill-opacity="1"/>
<path d="m320.37,489.02l-0.81,2.22l-6.83,0l0,-0.31c2.01,-1.83,3.42,-3.33,4.24,-4.49c0.82,-1.16,1.23,-2.22,1.23,-3.18c0,-0.73,-0.22,-1.33,-0.67,-1.81c-0.45,-0.47,-0.98,-0.7,-1.61,-0.7c-0.56,0,-1.07,0.16,-1.53,0.5c-0.45,0.33,-0.78,0.82,-1,1.46l-0.31,0c0.14,-1.05,0.5,-1.86,1.09,-2.42c0.58,-0.56,1.32,-0.84,2.2,-0.84c0.94,0,1.72,0.3,2.35,0.9c0.62,0.6,0.94,1.31,0.94,2.13c0,0.58,-0.13,1.17,-0.4,1.76c-0.42,0.92,-1.1,1.89,-2.05,2.92c-1.41,1.55,-2.3,2.48,-2.65,2.8l3.02,0c0.61,0,1.04,-0.02,1.29,-0.06c0.24,-0.04,0.47,-0.13,0.67,-0.27c0.19,-0.13,0.37,-0.33,0.52,-0.59l0.31,0m1.35,-3.49c0,-1.32,0.19,-2.45,0.59,-3.41c0.39,-0.95,0.92,-1.66,1.58,-2.13c0.51,-0.37,1.04,-0.55,1.58,-0.55c0.88,0,1.68,0.45,2.39,1.35c0.88,1.12,1.32,2.64,1.32,4.56c0,1.34,-0.19,2.48,-0.58,3.42c-0.38,0.93,-0.88,1.62,-1.48,2.04c-0.6,0.42,-1.18,0.63,-1.73,0.63c-1.1,0,-2.02,-0.65,-2.75,-1.95c-0.62,-1.1,-0.93,-2.42,-0.93,-3.97m1.67,0.21c0,1.59,0.19,2.89,0.58,3.9c0.32,0.84,0.8,1.27,1.45,1.27c0.3,0,0.62,-0.13,0.95,-0.41c0.33,-0.27,0.58,-0.73,0.75,-1.38c0.26,-0.98,0.39,-2.36,0.39,-4.14c0,-1.32,-0.13,-2.42,-0.41,-3.3c-0.2,-0.65,-0.46,-1.11,-0.79,-1.39c-0.23,-0.18,-0.51,-0.28,-0.84,-0.28c-0.38,0,-0.73,0.17,-1.03,0.52c-0.41,0.47,-0.68,1.21,-0.83,2.23c-0.14,1.01,-0.22,2.01,-0.22,2.99m7.07,-0.21c0,-1.32,0.19,-2.45,0.59,-3.41c0.39,-0.95,0.92,-1.66,1.58,-2.13c0.51,-0.37,1.04,-0.55,1.58,-0.55c0.88,0,1.68,0.45,2.39,1.35c0.88,1.12,1.32,2.64,1.32,4.56c0,1.34,-0.19,2.48,-0.58,3.42c-0.38,0.93,-0.88,1.62,-1.48,2.04c-0.6,0.42,-1.18,0.63,-1.73,0.63c-1.1,0,-2.02,-0.65,-2.75,-1.95c-0.62,-1.1,-0.93,-2.42,-0.93,-3.97m1.67,0.21c0,1.59,0.19,2.89,0.58,3.9c0.32,0.84,0.8,1.27,1.45,1.27c0.3,0,0.62,-0.13,0.95,-0.41c0.33,-0.27,0.58,-0.73,0.75,-1.38c0.26,-0.98,0.39,-2.36,0.39,-4.14c0,-1.32,-0.13,-2.42,-0.41,-3.3c-0.2,-0.65,-0.46,-1.11,-0.79,-1.39c-0.23,-0.18,-0.51,-0.28,-0.84,-0.28c-0.38,0,-0.73,0.17,-1.03,0.52c-0.41,0.47,-0.68,1.21,-0.83,2.23c-0.14,1.01,-0.22,2.01,-0.22,2.99" fill="#000000" stroke="none" fill-opacity="1"/>
<path d="m386.68,489.02l-0.81,2.22l-6.83,0l0,-0.31c2.01,-1.83,3.42,-3.33,4.24,-4.49c0.82,-1.16,1.23,-2.22,1.23,-3.18c0,-0.73,-0.22,-1.33,-0.67,-1.81c-0.45,-0.47,-0.98,-0.7,-1.61,-0.7c-0.56,0,-1.07,0.16,-1.53,0.5c-0.45,0.33,-0.78,0.82,-1,1.46l-0.31,0c0.14,-1.05,0.5,-1.86,1.09,-2.42c0.58,-0.56,1.32,-0.84,2.2,-0.84c0.94,0,1.72,0.3,2.35,0.9c0.62,0.6,0.94,1.31,0.94,2.13c0,0.58,-0.13,1.17,-0.4,1.76c-0.42,0.92,-1.1,1.89,-2.05,2.92c-1.41,1.55,-2.3,2.48,-2.65,2.8l3.02,0c0.61,0,1.04,-0.02,1.29,-0.06c0.24,-0.04,0.47,-0.13,0.67,-0.27c0.19,-0.13,0.37,-0.33,0.52,-0.59l0.31,0m8.32,-9.35l-0.66,1.45l-3.48,0l-0.76,1.55c1.5,0.22,2.7,0.78,3.58,1.68c0.75,0.77,1.13,1.68,1.13,2.73c0,0.6,-0.12,1.17,-0.37,1.69c-0.24,0.51,-0.55,0.95,-0.93,1.32c-0.37,0.36,-0.79,0.65,-1.25,0.87c-0.65,0.31,-1.32,0.47,-2.01,0.47c-0.69,0,-1.2,-0.11,-1.51,-0.35c-0.31,-0.23,-0.47,-0.49,-0.47,-0.78c0,-0.15,0.06,-0.3,0.19,-0.42c0.13,-0.12,0.29,-0.18,0.49,-0.18c0.14,0,0.27,0.02,0.38,0.06c0.11,0.04,0.3,0.16,0.56,0.35c0.42,0.29,0.86,0.44,1.3,0.44c0.66,0,1.25,-0.25,1.75,-0.75c0.5,-0.5,0.75,-1.11,0.75,-1.84c0,-0.7,-0.22,-1.35,-0.67,-1.96c-0.45,-0.6,-1.07,-1.07,-1.86,-1.4c-0.62,-0.25,-1.46,-0.4,-2.53,-0.44l2.22,-4.5l4.15,0m1.78,5.86c0,-1.32,0.19,-2.45,0.59,-3.41c0.39,-0.95,0.92,-1.66,1.58,-2.13c0.51,-0.37,1.04,-0.55,1.58,-0.55c0.88,0,1.68,0.45,2.39,1.35c0.88,1.12,1.32,2.64,1.32,4.56c0,1.34,-0.19,2.48,-0.58,3.42c-0.38,0.93,-0.88,1.62,-1.48,2.04c-0.6,0.42,-1.18,0.63,-1.73,0.63c-1.1,0,-2.02,-0.65,-2.75,-1.95c-0.62,-1.1,-0.93,-2.42,-0.93,-3.97m1.67,0.21c0,1.59,0.19,2.89,0.58,3.9c0.32,0.84,0.8,1.27,1.45,1.27c0.3,0,0.62,-0.13,0.95,-0.41c0.33,-0.27,0.58,-0.73,0.75,-1.38c0.26,-0.98,0.39,-2.36,0.39,-4.14c0,-1.32,-0.13,-2.42,-0.41,-3.3c-0.2,-0.65,-0.46,-1.11,-0.79,-1.39c-0.23,-0.18,-0.51,-0.28,-0.84,-0.28c-0.38,0,-0.73,0.17,-1.03,0.52c-0.41,0.47,-0.68,1.21,-0.83,2.23c-0.14,1.01,-0.22,2.01,-0.22,2.99" fill="#000000" stroke="none" fill-opacity="1"/>
<path d="m445.86,481.87c0.33,-0.78,0.74,-1.38,1.25,-1.8c0.5,-0.42,1.13,-0.63,1.88,-0.63c0.92,0,1.64,0.3,2.13,0.9c0.37,0.45,0.56,0.93,0.56,1.44c0,0.84,-0.52,1.71,-1.58,2.61c0.71,0.27,1.24,0.67,1.61,1.19c0.36,0.51,0.54,1.12,0.54,1.82c0,1,-0.31,1.87,-0.95,2.6c-0.83,0.95,-2.03,1.43,-3.61,1.43c-0.78,0,-1.31,-0.09,-1.59,-0.29c-0.28,-0.19,-0.42,-0.4,-0.42,-0.62c0,-0.16,0.06,-0.31,0.2,-0.43c0.13,-0.12,0.29,-0.18,0.48,-0.18c0.14,0,0.28,0.02,0.43,0.06c0.09,0.02,0.31,0.13,0.65,0.31c0.34,0.17,0.57,0.28,0.7,0.32c0.21,0.06,0.43,0.09,0.67,0.09c0.58,0,1.08,-0.22,1.51,-0.67c0.43,-0.45,0.64,-0.98,0.64,-1.59c0,-0.45,-0.09,-0.88,-0.29,-1.31c-0.14,-0.31,-0.31,-0.56,-0.48,-0.72c-0.24,-0.22,-0.58,-0.43,-1,-0.61c-0.42,-0.18,-0.86,-0.27,-1.3,-0.27l-0.27,0l0,-0.25c0.45,-0.05,0.9,-0.21,1.35,-0.48c0.45,-0.26,0.78,-0.58,0.98,-0.96c0.2,-0.37,0.3,-0.78,0.3,-1.23c0,-0.58,-0.18,-1.06,-0.55,-1.42c-0.36,-0.36,-0.82,-0.54,-1.37,-0.54c-0.88,0,-1.62,0.47,-2.21,1.41l-0.28,-0.13m8.49,3.65c0,-1.32,0.19,-2.45,0.59,-3.41c0.39,-0.95,0.92,-1.66,1.58,-2.13c0.51,-0.37,1.04,-0.55,1.58,-0.55c0.88,0,1.68,0.45,2.39,1.35c0.88,1.12,1.32,2.64,1.32,4.56c0,1.34,-0.19,2.48,-0.58,3.42c-0.38,0.93,-0.88,1.62,-1.48,2.04c-0.6,0.42,-1.18,0.63,-1.73,0.63c-1.1,0,-2.02,-0.65,-2.75,-1.95c-0.62,-1.1,-0.93,-2.42,-0.93,-3.97m1.67,0.21c0,1.59,0.19,2.89,0.58,3.9c0.32,0.84,0.8,1.27,1.45,1.27c0.3,0,0.62,-0.13,0.95,-0.41c0.33,-0.27,0.58,-0.73,0.75,-1.38c0.26,-0.98,0.39,-2.36,0.39,-4.14c0,-1.32,-0.13,-2.42,-0.41,-3.3c-0.2,-0.65,-0.46,-1.11,-0.79,-1.39c-0.23,-0.18,-0.51,-0.28,-0.84,-0.28c-0.38,0,-0.73,0.17,-1.03,0.52c-0.41,0.47,-0.68,1.21,-0.83,2.23c-0.14,1.01,-0.22,2.01,-0.22,2.99m7.07,-0.21c0,-1.32,0.19,-2.45,0.59,-3.41c0.39,-0.95,0.92,-1.66,1.58,-2.13c0.51,-0.37,1.04,-0.55,1.58,-0.55c0.88,0,1.68,0.45,2.39,1.35c0.88,1.12,1.32,2.64,1.32,4.56c0,1.34,-0.19,2.48,-0.58,3.42c-0.38,0.93,-0.88,1.62,-1.48,2.04c-0.6,0.42,-1.18,0.63,-1.73,0.63c-1.1,0,-2.02,-0.65,-2.75,-1.95c-0.62,-1.1,-0.93,-2.42,-0.93,-3.97m1.67,0.21c0,1.59,0.19,2.89,0.58,3.9c0.32,0.84,0.8,1.27,1.45,1.27c0.3,0,0.62,-0.13,0.95,-0.41c0.33,-0.27,0.58,-0.73,0.75,-1.38c0.26,-0.98,0.39,-2.36,0.39,-4.14c0,-1.32,-0.13,-2.42,-0.41,-3.3c-0.2,-0.65,-0.46,-1.11,-0.79,-1.39c-0.23,-0.18,-0.51,-0.28,-0.84,-0.28c-0.38,0,-0.73,0.17,-1.03,0.52c-0.41,0.47,-0.68,1.21,-0.83,2.23c-0.14,1.01,-0.22,2.01,-0.22,2.99" fill="#000000" stroke="none" fill-opacity="1"/>
<path d="m506.13,481.87c0.33,-0.78,0.74,-1.38,1.25,-1.8c0.5,-0.42,1.13,-0.63,1.88,-0.63c0.92,0,1.64,0.3,2.13,0.9c0.37,0.45,0.56,0.93,0.56,1.44c0,0.84,-0.52,1.71,-1.58,2.61c0.71,0.27,1.24,0.67,1.61,1.19c0.36,0.51,0.54,1.12,0.54,1.82c0,1,-0.31,1.87,-0.95,2.6c-0.83,0.95,-2.03,1.43,-3.61,1.43c-0.78,0,-1.31,-0.09,-1.59,-0.29c-0.28,-0.19,-0.42,-0.4,-0.42,-0.62c0,-0.16,0.06,-0.31,0.2,-0.43c0.13,-0.12,0.29,-0.18,0.48,-0.18c0.14,0,0.28,0.02,0.43,0.06c0.09,0.02,0.31,0.13,0.65,0.31c0.34,0.17,0.57,0.28,0.7,0.32c0.21,0.06,0.43,0.09,0.67,0.09c0.58,0,1.08,-0.22,1.51,-0.67c0.43,-0.45,0.64,-0.98,0.64,-1.59c0,-0.45,-0.09,-0.88,-0.29,-1.31c-0.14,-0.31,-0.31,-0.56,-0.48,-0.72c-0.24,-0.22,-0.58,-0.43,-1,-0.61c-0.42,-0.18,-0.86,-0.27,-1.3,-0.27l-0.27,0l0,-0.25c0.45,-0.05,0.9,-0.21,1.35,-0.48c0.45,-0.26,0.78,-0.58,0.98,-0.96c0.2,-0.37,0.3,-0.78,0.3,-1.23c0,-0.58,-0.18,-1.06,-0.55,-1.42c-0.36,-0.36,-0.82,-0.54,-1.37,-0.54c-0.88,0,-1.62,0.47,-2.21,1.41l-0.28,-0.13m15.45,-2.2l-0.66,1.45l-3.48,0l-0.76,1.55c1.5,0.22,2.7,0.78,3.58,1.68c0.75,0.77,1.13,1.68,1.13,2.73c0,0.6,-0.12,1.17,-0.37,1.69c-0.24,0.51,-0.55,0.95,-0.93,1.32c-0.37,0.36,-0.79,0.65,-1.25,0.87c-0.65,0.31,-1.32,0.47,-2.01,0.47c-0.69,0,-1.2,-0.11,-1.51,-0.35c-0.31,-0.23,-0.47,-0.49,-0.47,-0.78c0,-0.15,0.06,-0.3,0.19,-0.42c0.13,-0.12,0.29,-0.18,0.49,-0.18c0.14,0,0.27,0.02,0.38,0.06c0.11,0.04,0.3,0.16,0.56,0.35c0.42,0.29,0.86,0.44,1.3,0.44c0.66,0,1.25,-0.25,1.75,-0.75c0.5,-0.5,0.75,-1.11,0.75,-1.84c0,-0.7,-0.22,-1.35,-0.67,-1.96c-0.45,-0.6,-1.07,-1.07,-1.86,-1.4c-0.62,-0.25,-1.46,-0.4,-2.53,-0.44l2.22,-4.5l4.15,0m1.78,5.86c0,-1.32,0.19,-2.45,0.59,-3.41c0.39,-0.95,0.92,-1.66,1.58,-2.13c0.51,-0.37,1.04,-0.55,1.58,-0.55c0.88,0,1.68,0.45,2.39,1.35c0.88,1.12,1.32,2.64,1.32,4.56c0,1.34,-0.19,2.48,-0.58,3.42c-0.38,0.93,-0.88,1.62,-1.48,2.04c-0.6,0.42,-1.18,0.63,-1.73,0.63c-1.1,0,-2.02,-0.65,-2.75,-1.95c-0.62,-1.1,-0.93,-2.42,-0.93,-3.97m1.67,0.21c0,1.59,0.19,2.89,0.58,3.9c0.32,0.84,0.8,1.27,1.45,1.27c0.3,0,0.62,-0.13,0.95,-0.41c0.33,-0.27,0.58,-0.73,0.75,-1.38c0.26,-0.98,0.39,-2.36,0.39,-4.14c0,-1.32,-0.13,-2.42,-0.41,-3.3c-0.2,-0.65,-0.46,-1.11,-0.79,-1.39c-0.23,-0.18,-0.51,-0.28,-0.84,-0.28c-0.38,0,-0.73,0.17,-1.03,0.52c-0.41,0.47,-0.68,1.21,-0.83,2.23c-0.14,1.01,-0.22,2.01,-0.22,2.99" fill="#000000" stroke="none" fill-opacity="1"/>
</g>
</g>
</g>
</svg>
